<svg xmlns="http://www.w3.org/2000/svg" xmlns:xlink="http://www.w3.org/1999/xlink" viewBox="0 0 1024 1024" width="1024" height="1024">
  <defs>
    <linearGradient id="linearGradient" x1="434.87" y1="11.65" x2="144" y2="515.45" gradientUnits="userSpaceOnUse">
      <stop offset="0" stop-color="#b8c0ca"/>
      <stop offset="1" stop-color="#6a798c"/>
    </linearGradient>
	<filter id="dropShadowFilter" x="-10%" y="-10%" width="120%" height="120%">
		<feOffset result="offOut" in="SourceGraphic" dx="10" dy="10" />
		<feColorMatrix result="matrixOut" in="offOut" type="matrix" values="0.2 0 0 0 0 0 0.2 0 0 0 0 0 0.2 0 0 0 0 0 1 0" />
		<feGaussianBlur result="blurOut" in="matrixOut" stdDeviation="10" />
		<feBlend in="SourceGraphic" in2="blurOut" mode="normal" />
    </filter>
  </defs>
 
  <g transform="translate(256 256)">
	<path style="fill: url(#linearGradient)" filter="url(#dropShadowFilter)" data-name="Rectangle 233" d="M189.81,186.48V410.92h0c.22,20.66-13.52,44-42,58.59-39.52,20.33-81.08,10.41-96.29-13.07S47.46,395.94,87,375.61c26.58-13.67,54.08-13.66,73.86-5V77L448.46,19.5V382.28H449c.18,20.52-13.38,43.64-41.42,58.18-39,20.21-80,10.35-95-13s-4-60.14,35-80.35c26.22-13.59,73-5,73-5V140.33Z"/>
  </g>
</svg>
